<?xml version="1.0" encoding="utf-8"?>
<!-- Generator: Adobe Illustrator 16.0.0, SVG Export Plug-In . SVG Version: 6.00 Build 0)  -->
<!DOCTYPE svg PUBLIC "-//W3C//DTD SVG 1.1//EN" "http://www.w3.org/Graphics/SVG/1.1/DTD/svg11.dtd">
<svg version="1.1" id="Layer_1" xmlns="http://www.w3.org/2000/svg" xmlns:xlink="http://www.w3.org/1999/xlink" x="0px" y="0px"
	 width="791px" height="794px" viewBox="0 0 791 794" enable-background="new 0 0 791 794" xml:space="preserve">
<circle fill="#FFFFFF" stroke="#000000" stroke-miterlimit="10" cx="391" cy="398.5" r="373"/>
<g>
	<g transform="translate(0.000000,794.000000) scale(0.100000,-0.100000)">
		<path fill="#09044D" d="M3640,7847.611c-927.998-81.001-1750-452.998-2397.998-1083.999c-168.003-162.998-286.001-295-403.003-450
			c-426.001-565-681.001-1205-765-1920c-25-210-25-654.004,0-855c43.999-364.004,125-690.996,248.003-1000
			C806.001,1320.615,1860,429.609,3140,158.613c285-60.996,430-74.004,795-75c412.002,0,595,20,940,105
			c995.996,244.004,1862.998,882.002,2397.998,1765c482.998,795.996,660,1730.996,506.006,2670
			c-150,913.999-662.002,1785-1394.004,2372.001c-520.996,417.998-1117.002,687.998-1780,806.997
			C4347.998,7848.612,3890,7869.613,3640,7847.611z M4370,7389.613c967.998-125,1817.998-632.002,2382.002-1421.001
			c517.998-725,732.002-1622.001,602.002-2520c-96.006-662.002-417.002-1325.996-886.006-1832.998
			c-480.996-520-1153.994-896.006-1845-1031.006c-273.994-52.998-357.002-60.996-687.998-60c-285,0-323.999,2.002-487.002,27.002
			c-520.996,80-980,255-1412.998,542.002c-202.998,135-337.998,245.996-530,439.004c-285,285-475,545.996-643.999,883.994
			c-316.001,630-432.002,1331.006-335,2027.002c126.001,907.998,602.998,1718.999,1338.999,2275
			c528.999,401.001,1156.001,637.998,1825,690C3861.001,7421.61,4190,7412.611,4370,7389.613z"/>
		<path fill="#09044D" d="M3810,7154.613c0-42.002,72.998-62.002,102.002-28.003c33.999,39.004,31.997,42.002-36.001,42.002
			C3825,7168.612,3810,7165.614,3810,7154.613z"/>
		<path fill="#09044D" d="M4080,7159.613c0-12.002,60.996-71.001,72.998-71.001c16.006,0,66.006,33.999,72.002,48.999
			c2.998,8.003,0,18.003-7.002,23.003C4200,7171.61,4080,7170.614,4080,7159.613z"/>
		<path fill="#09044D" d="M3557.998,7151.61c-28.999-2.998-37.998-8.999-37.998-22.998c0-20,35-50,57.998-50
			c24.004,0,72.002,41.001,72.002,61.001S3643.999,7160.614,3557.998,7151.61z"/>
		<path fill="#09044D" d="M4380,7120.614c0-10,12.998-31.001,29.004-46.001c26.992-26.001,30-27.002,56.992-13.003
			c16.006,8.003,37.002,24.004,47.002,35c17.998,19.004,17.002,20-13.994,31.001c-18.008,6.001-52.002,11.001-75,11.001
			C4387.998,7138.612,4380,7135.614,4380,7120.614z"/>
		<path fill="#09044D" d="M3261.001,7105.614c-25-7.002-46.001-17.002-48.003-24.004c-8.999-25,85-55,112.002-35
			c11.001,8.003,45,58.003,45,67.002S3307.998,7117.611,3261.001,7105.614z"/>
		<path fill="#09044D" d="M3691.001,7083.612c-38.003-43.999-38.999-67.998-2.002-105c35-36.001,60-31.001,101.001,17.998
			c22.002,27.002,27.002,39.004,18.999,53.003c-8.999,17.998-70,68.999-81.001,68.999
			C3725,7118.612,3707.998,7102.611,3691.001,7083.612z"/>
		<path fill="#09044D" d="M3962.001,7085.614c-18.003-18.003-32.002-38.003-32.002-45c0-18.003,60.996-82.002,79.004-82.002
			c22.998,0,80.996,57.002,80.996,81.001c0,22.998-57.002,78.999-80,78.999C4000.996,7118.612,3980,7103.612,3962.001,7085.614z"/>
		<path fill="#09044D" d="M4242.998,7069.613c-17.998-15-32.998-32.002-32.998-38.999c0-16.001,40-82.002,50-82.002
			c5,0,15-2.998,22.998-6.001c17.998-6.001,87.002,51.001,87.002,73.003c0,23.999-54.004,82.998-75,82.998
			C4284.003,7097.611,4260,7085.614,4242.998,7069.613z"/>
		<path fill="#09044D" d="M4660,7084.613c0-13.999,50.996-86.001,60.996-86.001c5,0,28.008,10,51.006,21.001
			c37.998,18.999,40,22.998,25,33.999c-10,7.002-39.004,16.001-64.004,20s-52.002,8.999-58.994,12.002
			C4665.996,7088.612,4660,7087.611,4660,7084.613z"/>
		<path fill="#09044D" d="M3412.998,7056.61c-10.996-12.998-25.996-33.999-32.998-46.997c-10-20-8.999-26.001,7.002-43.003
			c10.996-10.996,36.997-25,57.998-31.997c37.998-13.999,38.999-13.003,62.002,21.001c33.999,50,30,75-16.001,100.996
			C3442.998,7083.612,3437.998,7083.612,3412.998,7056.61z"/>
		<path fill="#09044D" d="M2987.998,7032.611c-26.997-7.998-47.998-18.999-47.998-23.999c0-12.998,60-50,82.002-50
			c15.996,0,57.998,57.002,57.998,78.999C3080,7052.611,3046.001,7050.614,2987.998,7032.611z"/>
		<path fill="#09044D" d="M4519.003,7025.614c-39.004-27.002-40-46.001-3.008-94.004c30-38.999,40-40,85-10
			c41.006,27.002,46.006,51.001,19.004,95C4595.996,7055.614,4567.001,7058.612,4519.003,7025.614z"/>
		<path fill="#09044D" d="M3127.002,6983.612c-24.004-51.001-21.001-67.002,15.996-92.002c51.001-35,69.004-30,105,35
			c17.002,31.001,9.004,54.004-26.997,75C3173.999,7029.613,3146.001,7023.612,3127.002,6983.612z"/>
		<path fill="#09044D" d="M4945,6987.611c19.004-65,47.002-81.001,100-56.997c49.004,21.997,17.998,52.998-72.998,72.998
			C4940,7010.614,4937.998,7009.613,4945,6987.611z"/>
		<path fill="#09044D" d="M4807.998,6966.61c-55-22.998-60-40.996-27.002-93.999c25-41.997,65-45,105-11.001
			c31.006,27.002,29.004,60-8.994,101.001L4855,6986.61L4807.998,6966.61z"/>
		<path fill="#09044D" d="M3828.999,6949.613c-16.001-16.001-28.999-33.999-28.999-40c0-7.002,27.002-11.001,70-11.001
			c68.999,0,76.001,2.998,63.999,35c-6.001,13.999-52.998,45-68.999,45C3861.001,6978.612,3845,6965.614,3828.999,6949.613z"/>
		<path fill="#09044D" d="M4090,6942.611c-19.004-17.998-32.002-35-30-36.997c2.998-2.002,40-7.002,82.998-10
			c62.002-6.001,77.002-4.004,77.002,6.997c0,15-72.002,77.002-85.996,75C4129.003,6976.61,4109.003,6961.61,4090,6942.611z"/>
		<path fill="#09044D" d="M3567.002,6950.614c-16.001-17.002-40-72.002-34.004-78.003c3.003-2.998,150,16.001,155,21.001
			c2.002,1.001-11.997,18.999-30.996,38.999C3618.999,6972.611,3592.002,6977.611,3567.002,6950.614z"/>
		<path fill="#09044D" d="M2742.002,6943.612c-43.003-12.998-72.002-31.001-72.002-45c0-11.001,47.998-30,76.001-30
			c18.999,0,27.998,7.998,40,35C2811.001,6963.612,2808.999,6964.613,2742.002,6943.612z"/>
		<path fill="#09044D" d="M4374.003,6926.61c-59.004-45-54.004-52.998,33.994-61.997c71.006-8.003,79.004,1.997,41.006,55
			C4424.003,6954.613,4412.001,6955.614,4374.003,6926.61z"/>
		<path fill="#09044D" d="M2860,6906.61c-37.998-62.998-17.998-98.999,61.001-112.998c36.001-7.002,36.997-6.001,52.998,41.001
			c8.999,26.001,16.001,51.001,16.001,55c0,6.001-91.001,48.999-105,48.999C2882.002,6938.612,2871.001,6923.612,2860,6906.61z"/>
		<path fill="#09044D" d="M3296.001,6893.612c-33.999-52.002-13.003-67.002,66.997-43.999c43.003,11.997,47.002,30,12.002,52.998
			C3341.001,6925.614,3315,6922.611,3296.001,6893.612z"/>
		<path fill="#09044D" d="M5215,6875.614c10-42.002,22.998-67.002,37.998-68.003c26.006-2.998,52.998,3.999,82.002,18.003
			l29.004,15.996l-49.004,25c-27.002,13.003-62.002,28.003-77.998,33.003C5209.003,6907.611,5209.003,6906.61,5215,6875.614z"/>
		<path fill="#09044D" d="M4634.003,6864.613c-19.004-16.001-26.006-28.003-19.004-33.999c12.002-11.001,115.996-35,122.998-28.003
			c2.002,3.003-3.994,22.002-15,43.003C4699.003,6892.611,4672.001,6897.611,4634.003,6864.613z"/>
		<path fill="#09044D" d="M5070.996,6868.612c-41.992-20-42.998-21.001-35.996-57.002c12.002-62.998,22.998-75.996,57.998-68.999
			c75,15,99.004,65,56.006,120C5125,6893.612,5127.001,6893.612,5070.996,6868.612z"/>
		<path fill="#09044D" d="M3032.002,6821.61c-23.003-60.996-23.003-62.998,1.997-62.998c28.003,0,113.999,28.999,121.001,41.001
			c7.998,12.998-55,48.999-86.001,48.999C3048.999,6848.612,3040,6841.61,3032.002,6821.61z"/>
		<path fill="#09044D" d="M2471.001,6820.614c-68.003-34.004-65-72.002,6.997-72.002c26.001,0,34.004,5,42.002,26.001
			c13.999,35,12.002,63.999-2.002,63.999C2511.001,6838.612,2490,6830.614,2471.001,6820.614z"/>
		<path fill="#09044D" d="M2592.002,6779.613l-20-60l38.999-15c65-26.001,85-22.002,102.998,23.999
			c23.003,57.002,20,68.999-16.001,83.999C2617.002,6845.614,2613.999,6844.613,2592.002,6779.613z"/>
		<path fill="#09044D" d="M4900,6790.614c-19.004-9.004-34.004-21.001-32.002-27.002c2.998-12.002,101.006-47.002,119.004-42.998
			c15.996,3.999-21.006,87.998-39.004,87.998C4940.996,6808.612,4919.003,6800.614,4900,6790.614z"/>
		<path fill="#09044D" d="M2787.002,6741.61c-29.004-55.996-30-72.998-7.002-72.998c27.002,0,120,40,120,51.001
			c0,11.997-40,35-72.002,42.998C2805,6767.611,2797.998,6764.613,2787.002,6741.61z"/>
		<path fill="#09044D" d="M5312.998,6753.612c-17.998-7.998-32.998-20-32.998-27.002c0-27.998,27.002-101.997,37.998-105.996
			c7.002-2.002,35,3.999,62.998,12.998c49.004,17.002,51.006,18.999,46.006,48.999c-11.006,63.999-25,86.001-54.004,86.001
			C5357.001,6767.611,5330,6761.61,5312.998,6753.612z"/>
		<path fill="#09044D" d="M5477.001,6731.61c7.998-55,15.996-60.996,67.998-52.998c25,3.999,47.998,10,52.002,12.998
			c10,11.001-20,39.004-62.002,58.003C5477.001,6776.61,5470,6774.613,5477.001,6731.61z"/>
		<path fill="#09044D" d="M2226.001,6681.61c-43.999-22.998-78.999-58.999-72.002-71.997c3.999-6.001,31.001-11.001,60-11.001
			c53.999,0,53.999,0,60,36.001c3.999,18.999,10,41.997,13.003,50C2293.999,6703.612,2262.998,6702.611,2226.001,6681.61z"/>
		<path fill="#09044D" d="M2341.001,6662.611c-6.001-21.997-11.001-51.001-11.001-65c0-23.999,5-26.997,57.998-37.998
			c50-10,58.003-8.999,69.004,5c16.997,22.998,27.998,102.998,15.996,115c-5.996,6.001-35,12.998-65.996,16.001l-55,5.996
			L2341.001,6662.611z"/>
		<path fill="#09044D" d="M5137.998,6687.611c-28.994-16.001-20.996-26.997,42.002-58.999c64.004-32.002,67.002-30,47.998,31.001
			c-10,35-15,38.999-42.002,38.999C5169.003,6698.612,5147.001,6693.612,5137.998,6687.611z"/>
		<path fill="#09044D" d="M2536.001,6631.61c-17.002-61.997-17.002-82.998-1.001-82.998c25,0,95,38.999,102.002,57.002
			c7.998,21.997-23.003,42.998-63.003,42.998C2551.001,6648.612,2540,6643.612,2536.001,6631.61z"/>
		<path fill="#09044D" d="M5600,6621.61c-74.004-10.996-70.996-8.999-67.998-70.996c2.998-64.004,10-69.004,83.994-57.002
			l44.004,6.001v45c0,45-14.004,85-27.998,82.998C5627.998,6626.61,5614.003,6624.613,5600,6621.61z"/>
		<path fill="#09044D" d="M5724.003,6596.61c2.998-12.998,5.996-35,5.996-50c0-25.996,2.998-27.998,37.998-27.998
			c50,0,84.004,10,79.004,22.998c-5,16.001-96.006,77.002-114.004,77.002C5722.001,6618.612,5719.003,6612.611,5724.003,6596.61z"/>
		<path fill="#09044D" d="M5404.003,6579.613c-49.004-12.002-58.008-20-40-38.999c20-22.002,103.994-68.003,110.996-61.001
			c10,10-15.996,108.999-27.998,107.998C5440,6586.61,5420.996,6583.612,5404.003,6579.613z"/>
		<path fill="#09044D" d="M2112.002,6510.614c-7.002-21.001-12.002-51.001-12.002-65c0-24.004,3.999-25,57.998-29.004
			c42.002-2.998,60,0,70,11.001c13.003,16.001,17.002,97.002,4.004,105c-5,3.003-31.001,8.003-58.003,11.001l-50,7.002
			L2112.002,6510.614z"/>
		<path fill="#09044D" d="M1971.001,6497.611c-28.003-21.997-51.001-45-51.001-48.999c0-12.998,65-22.998,95-16.001
			c22.002,6.001,25,11.001,25,56.001c0,27.998-3.999,50-8.999,50C2027.002,6538.612,2000,6520.614,1971.001,6497.611z"/>
		<path fill="#09044D" d="M2300,6458.612c0-27.002,2.998-50,6.001-50c10,0,47.998,22.002,81.997,47.998l33.003,26.001
			l-23.003,12.002c-12.998,6.997-40,12.998-60,13.999H2300V6458.612z"/>
		<path fill="#09044D" d="M5759.003,6431.61c-3.008-15.996-2.002-43.999,0.996-62.998c4.004-30,9.004-35,34.004-37.998
			c15.996-2.002,43.994-1.001,62.998,2.998l32.998,6.001v58.999v60h-64.004C5764.003,6458.612,5762.001,6457.611,5759.003,6431.61z"
			/>
		<path fill="#09044D" d="M5954.003,6411.61c2.998-20.996,5.996-45.996,5.996-55c0-12.998,7.998-17.998,27.998-17.998
			c41.006,0,72.002,11.001,72.002,23.999c0,21.001-80,86.001-105.996,86.001C5950.996,6448.612,5950,6431.61,5954.003,6411.61z"/>
		<path fill="#09044D" d="M5600.996,6406.61c0-25,39.004-60,78.008-72.998c22.998-7.002,23.994-6.001,17.998,31.001
			c-4.004,21.997-7.002,45-7.002,51.997c0,8.003-15.996,12.002-45,12.002C5605,6428.612,5600,6426.61,5600.996,6406.61z"/>
		<path fill="#09044D" d="M2590,6141.61c-135-136.997-310-313.999-390-395l-145-147.998h1905h1905l-395,395l-395,395H3955H2835
			L2590,6141.61z"/>
		<path fill="#09044D" d="M1893.999,6353.612c-18.999-28.999-13.999-92.998,8.003-107.002c6.997-3.999,33.999-7.998,60.996-7.998
			H2010v63.999c0,58.003-2.002,63.999-22.002,70C1940,6384.613,1911.001,6378.612,1893.999,6353.612z"/>
		<path fill="#09044D" d="M1795,6346.61c-35-18.999-85-70.996-85-90c0-15,7.998-17.998,48.999-17.998h50l6.001,43.999
			C1825,6344.613,1820,6359.613,1795,6346.61z"/>
		<path fill="#09044D" d="M2080,6341.61c0-10-2.998-35-6.001-55c-6.001-32.998-3.999-37.998,13.003-37.998
			c10.996,0,40,17.998,63.999,40c41.997,37.998,42.998,40,25,55C2147.002,6365.614,2080,6363.612,2080,6341.61z"/>
		<path fill="#09044D" d="M5834.003,6268.612c-12.002-5-25-12.998-28.008-17.998c-5.996-11.001,77.002-92.002,94.004-92.002
			c7.002,0,10,21.001,7.998,57.998c-2.998,53.003-5,57.002-27.998,59.004C5865.996,6276.61,5845,6273.612,5834.003,6268.612z"/>
		<path fill="#09044D" d="M6007.998,6271.61c-27.002-3.999-27.998-6.997-27.998-58.999v-53.999h55h55v55
			c0,41.001-4.004,55-14.004,55c-7.998,0-20,2.002-27.998,2.998C6040.996,6273.612,6022.998,6273.612,6007.998,6271.61z"/>
		<path fill="#09044D" d="M6172.001,6201.61l2.998-57.998l52.998-2.998c36.006-2.002,52.002,0.996,52.002,8.999
			c0,20-45,72.998-79.004,91.997l-31.992,19.004L6172.001,6201.61z"/>
		<path fill="#09044D" d="M1702.002,6178.612c-21.001-8.999-23.003-15-20-67.002l2.998-57.998l53.999-2.998
			c63.999-4.004,71.001,2.998,71.001,70c0,36.997-3.999,50-18.999,57.998C1767.002,6190.614,1732.998,6190.614,1702.002,6178.612z"
			/>
		<path fill="#09044D" d="M1870,6128.612c0-70,17.998-72.998,75-16.001c25,25,45,51.001,45,56.001c0,6.001-27.002,10-60,10h-60
			V6128.612z"/>
		<path fill="#09044D" d="M1548.999,6106.61c-26.997-28.999-48.999-58.999-48.999-65c0-15.996,72.998-17.998,101.001-2.998
			c15,7.998,18.999,21.001,18.999,60c0,27.002-5,52.002-11.001,55C1602.998,6157.611,1577.002,6136.61,1548.999,6106.61z"/>
		<path fill="#09044D" d="M6015,6074.613c-19.004-13.999-17.998-16.001,25.996-60c62.002-61.001,71.006-60,67.002,11.997
			l-2.998,57.002l-35,2.998C6050.996,6088.612,6025.996,6082.611,6015,6074.613z"/>
		<path fill="#09044D" d="M6180.996,6060.614C6175,6048.612,6170,6021.61,6170,5999.613v-41.001h60h60v55
			c0,47.002-2.998,55-19.004,55c-10,0-31.992,2.998-48.994,6.001C6197.998,6079.613,6190,6076.61,6180.996,6060.614z"/>
		<path fill="#09044D" d="M6367.001,6034.613c-11.006-28.003-7.998-81.001,5-93.999c7.002-7.002,32.002-12.002,55-12.002
			c50.996,0,50,7.002-14.004,80C6380,6045.614,6372.001,6049.613,6367.001,6034.613z"/>
		<path fill="#09044D" d="M1690,5968.612c-12.998-25-2.998-90,15-90c13.999,0,95,85,95,100c0,5-22.002,10-50,10
			C1711.001,5988.612,1698.999,5984.613,1690,5968.612z"/>
		<path fill="#09044D" d="M1542.998,5961.61l-42.998-3.999v-55v-53.999h53.999c52.002,0,55,1.001,61.001,30
			c7.998,37.998-2.998,91.001-17.998,87.998C1590,5965.614,1566.001,5963.612,1542.998,5961.61z"/>
		<path fill="#09044D" d="M1365,5882.611c-36.001-47.998-47.002-91.001-21.001-81.001c8.003,3.003,31.001,9.004,50,13.003
			c36.001,6.001,36.001,6.001,36.001,60C1430,5943.612,1413.999,5945.614,1365,5882.611z"/>
		<path fill="#09044D" d="M6180,5875.614c0-19.004,70-107.002,85-107.002c14.004,0,24.004,60,17.002,97.002
			c-4.004,20-10,22.998-52.998,22.998C6195,5888.612,6180,5884.613,6180,5875.614z"/>
		<path fill="#09044D" d="M6345,5870.614c-2.998-3.003-5-34.004-5-68.003v-62.998l44.004-6.001c63.994-10,75.996-3.999,91.992,40
			c17.002,48.999,18.008,72.002,3.008,81.001C6465,5862.611,6350.996,5876.61,6345,5870.614z"/>
		<path fill="#09044D" d="M6537.001,5769.613c-6.006-28.999,0.996-71.001,12.002-71.001c2.998,0,22.998-5,45-8.999l37.998-8.999
			l-6.006,30.996c-6.992,33.003-50.996,87.002-71.992,87.002C6547.998,5798.612,6540,5785.614,6537.001,5769.613z"/>
		<path fill="#09044D" d="M1516.001,5769.613c-3.003-5-3.003-30,0-55c5-33.999,11.001-46.001,22.998-46.001
			c16.001,0,81.001,80,81.001,100C1620,5781.61,1522.998,5781.61,1516.001,5769.613z"/>
		<path fill="#09044D" d="M1351.001,5744.613c-18.999-7.002-36.001-17.002-38.003-22.002c-0.996-5,3.003-31.001,10-58.999
			c12.002-43.999,17.002-50,42.002-52.998c16.001-2.002,47.002,0.996,67.998,7.998l39.004,11.001l-7.002,46.001
			c-8.999,61.997-12.998,70-37.998,76.997C1397.998,5760.614,1391.001,5759.613,1351.001,5744.613z"/>
		<path fill="#09044D" d="M1200,5636.61c-16.001-28.999-30-55.996-30-60c0-11.997,57.998-10,81.001,2.002
			c12.998,7.002,18.999,21.001,18.999,45C1270,5704.613,1242.002,5709.613,1200,5636.61z"/>
		<path fill="#09044D" d="M6340,5671.61c0-15,65-115.996,77.002-120c7.002-2.998,15.996,13.003,22.002,34.004
			c17.998,65,15.996,70-39.004,81.997C6339.003,5680.614,6340,5680.614,6340,5671.61z"/>
		<path fill="#09044D" d="M6500.996,5581.61c-15-58.999-1.992-73.999,67.002-80.996c55-5,54.004-5,67.002,70
			c7.998,43.999-10,57.998-77.998,57.998h-45L6500.996,5581.61z"/>
		<path fill="#09044D" d="M6690.996,5521.61c-8.994-31.997-7.998-40.996,7.002-55c22.002-21.997,82.002-35.996,82.002-17.998
			c0,22.002-52.998,110-65.996,110C6707.001,5558.612,6695.996,5541.61,6690.996,5521.61z"/>
		<path fill="#09044D" d="M1376.001,5532.611c-18.999-17.998-18.999-13.999-5-52.998c6.001-17.002,16.997-31.001,23.999-31.001
			c16.001,0,55,60,55,83.999C1450,5553.612,1397.002,5554.613,1376.001,5532.611z"/>
		<path fill="#09044D" d="M1222.998,5501.61c-38.999-12.998-42.998-17.998-42.998-47.998c0-42.998,20-87.001,36.001-81
			c6.001,2.002,30,10,52.998,17.002c38.999,11.997,41.001,13.999,41.001,51c0,43.999-15,77.998-32.998,76.997
			C1270,5517.611,1246.001,5510.614,1222.998,5501.61z"/>
		<path fill="#09044D" d="M2220,4963.613v-555h90h90v50c0,114.004,86.001,244.004,192.998,290.996
			c71.001,31.006,182.002,32.002,249.004,2.002C2946.001,4704.609,3030,4592.617,3030,4498.613c1.001-90,1.001-90,100-90h88.999
			l3.003,277.998c2.998,259.004,3.999,280,25,324.004c30,65.996,95.996,132.998,161.997,165
			c112.002,55,263.999,28.999,353.999-61.001c67.002-66.001,90-127.002,95-243.003l4.004-102.998H3955h92.002l5.996,96.001
			c9.004,137.998,51.006,221.001,142.002,283.999c154.004,106.001,369.004,53.999,460.996-112.002l29.004-52.998l2.998-287.002
			l2.998-287.998h95H4880v47.998c0,122.002,65.996,229.004,172.002,281.006c82.998,40,140,46.992,215.996,26.992
			C5414.003,4727.617,5510,4611.611,5510,4471.611v-62.998h95h95v555v555H3960H2220V4963.613z"/>
		<path fill="#09044D" d="M6490,5433.612c0-25,50-105,65.996-105c15,0,34.004,38.999,34.004,70c0,22.002-19.004,33.999-67.002,45
			C6495.996,5448.612,6490,5446.61,6490,5433.612z"/>
		<path fill="#09044D" d="M1062.002,5385.615c-22.002-51.001-27.002-77.002-16.001-77.002c2.998,0,25,5,50,11.001
			c47.998,11.997,51.001,18.999,32.998,81.997C1113.999,5455.614,1090,5450.614,1062.002,5385.615z"/>
		<path fill="#09044D" d="M6655,5378.613c-9.004-10-20-38.999-22.002-62.998c-5-43.003-3.994-45,27.002-56.001
			c60-20,85-15,97.998,21.997c22.002,62.002,16.006,83.003-27.998,101.001C6679.003,5402.611,6677.001,5402.611,6655,5378.613z"/>
		<path fill="#09044D" d="M1267.998,5315.615c-33.999-9.004-37.998-14.004-37.998-42.002c0-31.001,25-65,47.002-65
			c7.998,0,52.998,97.998,52.998,116.001C1330,5330.615,1310,5327.612,1267.998,5315.615z"/>
		<path fill="#09044D" d="M6817.998,5259.614l-15-48.003l26.006-15.996c13.994-8.003,36.992-17.002,50.996-19.004
			c20-1.997,24.004,1.001,22.002,17.002c-5,33.999-45,115-57.002,115C6839.003,5308.613,6827.001,5286.611,6817.998,5259.614z"/>
		<path fill="#09044D" d="M1092.002,5250.615c-42.002-16.001-43.003-18.003-37.002-50c11.001-58.003,26.001-82.002,52.002-82.002
			c33.999,0,82.998,27.998,83.999,47.998c2.998,49.004-20,103.003-43.999,101.001
			C1141.001,5267.612,1116.001,5259.614,1092.002,5250.615z"/>
		<path fill="#09044D" d="M6620,5183.613c0-36.001,29.004-95,45.996-95c13.008,0,44.004,47.998,44.004,67.998
			c0,12.002-35.996,36.001-67.002,46.001C6622.998,5208.613,6620,5206.611,6620,5183.613z"/>
		<path fill="#09044D" d="M956.001,5141.611c-7.002-15.996-18.003-45-23.999-65c-12.002-43.999-2.002-47.998,53.999-21.997
			c38.999,17.998,46.001,52.998,17.998,91.997C983.999,5175.615,973.999,5174.614,956.001,5141.611z"/>
		<path fill="#09044D" d="M6759.003,5111.611c-25-65.996-23.008-78.999,13.994-101.997c52.002-32.002,71.006-28.003,97.002,21.997
			c27.998,52.002,22.002,73.003-25,92.002C6792.998,5145.615,6770.996,5142.612,6759.003,5111.611z"/>
		<path fill="#09044D" d="M1170,5074.614c-30-11.001-35-18.003-37.998-47.002c-3.003-38.999,17.998-76.001,37.998-63.999
			c15,8.999,48.999,82.998,50,107.998C1220,5091.611,1217.002,5091.611,1170,5074.614z"/>
		<path fill="#09044D" d="M6925,4994.614c-7.998-53.003-5-61.001,35.996-75l32.002-11.001l-5.996,40c-5,42.002-30,90-47.002,90
			C6935,5038.613,6927.998,5018.613,6925,4994.614z"/>
		<path fill="#09044D" d="M1013.999,5002.612c-51.997-26.997-66.001-46.001-60-77.998c12.002-56.001,45-68.999,115-45
			c28.999,10,32.002,13.999,25,42.998c-6.997,35-30,82.002-41.997,90C1047.002,5015.615,1030,5010.615,1013.999,5002.612z"/>
		<path fill="#09044D" d="M6725.996,4901.611c23.008-90.996,22.002-88.999,44.004-66.997c10.996,11.001,24.004,33.999,29.004,51.997
			c7.998,28.003,6.992,34.004-12.002,47.002c-12.002,7.002-34.004,17.002-49.004,20l-27.002,7.002L6725.996,4901.611z"/>
		<path fill="#09044D" d="M857.002,4831.611c-9.004-35.996-15-67.998-13.003-70c5-5,83.003,34.004,90,45
			c8.003,13.003-31.997,92.002-46.001,92.002C880,4898.613,867.998,4871.611,857.002,4831.611z"/>
		<path fill="#09044D" d="M6855.996,4860.615c-8.994-11.001-20.996-34.004-25.996-52.998c-9.004-31.006-7.998-36.006,17.002-57.002
			c32.002-25,67.002-37.002,82.998-27.002c10.996,7.002,34.004,47.998,44.004,80.996c5,18.003,0,26.006-26.006,42.002
			C6895.996,4877.612,6875,4881.611,6855.996,4860.615z"/>
		<path fill="#09044D" d="M1082.998,4818.613c-32.998-14.004-42.998-25-42.998-42.002c0-25,25-67.998,40-67.998
			s51.001,80,47.998,105l-2.998,23.999L1082.998,4818.613z"/>
		<path fill="#09044D" d="M7005,4728.613c-7.998-15.996-15-37.998-15-49.004c0-18.994,35.996-50.996,74.004-65
			c16.992-5.996,17.998-2.998,11.992,36.006C7060,4757.617,7034.003,4785.615,7005,4728.613z"/>
		<path fill="#09044D" d="M907.998,4716.611c-41.997-23.994-43.999-32.998-25-80.996c25-57.002,41.001-62.998,97.002-36.006
			c57.002,28.008,62.998,50,28.999,105C985,4744.609,961.001,4747.617,907.998,4716.611z"/>
		<path fill="#09044D" d="M3830,4643.613v-55h135h135v55v55h-135h-135V4643.613z"/>
		<path fill="#09044D" d="M6790,4673.613c0-32.002,25.996-95,39.004-95c12.998,0,50.996,49.004,50.996,65.996
			c0,15-55.996,54.004-77.002,54.004C6795.996,4698.613,6790,4687.617,6790,4673.613z"/>
		<path fill="#09044D" d="M810,4593.613c-7.002-7.998-15-35-17.998-60l-5-45l31.997,10.996c45,16.006,53.999,39.004,31.001,77.002
			C827.002,4613.613,827.002,4613.613,810,4593.613z"/>
		<path fill="#09044D" d="M6917.998,4581.611c-40-42.002-43.994-73.994-13.994-102.002c13.994-12.998,37.998-23.994,56.992-23.994
			c27.002-2.002,37.002,3.994,56.006,32.002c32.002,46.992,28.994,63.994-15,95C6955,4614.609,6950,4614.609,6917.998,4581.611z"/>
		<path fill="#09044D" d="M1030,4561.611c-27.002-10-50-35.996-50-55c0-17.998,57.002-85,63.999-77.002
			c8.003,9.004,17.002,139.004,8.999,138.008C1048.999,4567.617,1037.998,4564.609,1030,4561.611z"/>
		<path fill="#09044D" d="M3860,3788.613v-750h95h95v750v750h-95h-95V3788.613z"/>
		<path fill="#09044D" d="M855,4435.615c-37.998-32.998-37.998-34.004-25-66.006c20-47.998,52.002-66.992,90-50.996
			c32.998,14.004,50,37.002,50,69.004c0,22.998-46.001,80.996-63.999,80.996C898.999,4468.613,876.001,4453.613,855,4435.615z"/>
		<path fill="#09044D" d="M7050,4431.611l-22.002-37.002l36.006-32.998c20-17.998,40-32.998,45.996-32.998
			c7.002,0,10,25,7.998,67.998c-2.998,60-5,67.002-23.994,70C7077.998,4468.613,7067.001,4459.609,7050,4431.611z"/>
		<path fill="#09044D" d="M6845.996,4371.611c4.004-37.998,8.008-70,10-72.002c6.006-6.992,55,29.004,61.006,45
			c10,26.006-7.002,64.004-37.002,79.004c-15.996,7.998-32.002,15-35,15S6842.001,4408.613,6845.996,4371.611z"/>
		<path fill="#09044D" d="M2170,4293.613v-55h130h130v55v55h-130h-130V4293.613z"/>
		<path fill="#09044D" d="M2990,4293.613v-55h130h130v55v55h-130h-130V4293.613z"/>
		<path fill="#09044D" d="M4670,4293.613v-55h135h135v55v55h-135h-135V4293.613z"/>
		<path fill="#09044D" d="M5490,4293.613v-55h135h135v55v55h-135h-135V4293.613z"/>
		<path fill="#09044D" d="M756.001,4306.611c-3.003-12.998-6.001-45-6.001-70.996v-49.004l32.998,19.004
			c41.001,23.994,48.003,65,16.001,98.994C771.001,4334.609,763.999,4334.609,756.001,4306.611z"/>
		<path fill="#09044D" d="M6945.996,4288.613c-13.994-22.002-25.996-42.998-25.996-47.998c0-4.004,15-22.998,32.998-40
			c29.004-27.998,37.002-31.006,59.004-22.998c27.002,10,67.998,55.996,67.998,75.996c0,17.998-67.002,75-89.004,75
			C6980.996,4328.613,6960.996,4311.611,6945.996,4288.613z"/>
		<path fill="#09044D" d="M967.998,4279.609c-30-25.996-30.996-30-18.999-57.998c10-25,57.002-60.996,66.001-50.996
			c2.002,2.002,5,32.998,7.002,70.996C1027.002,4318.613,1017.998,4324.609,967.998,4279.609z"/>
		<path fill="#09044D" d="M837.002,4167.617c-48.003-36.006-51.001-54.004-16.001-94.004c38.999-44.004,77.998-47.002,107.998-9.004
			c28.003,35,27.002,47.002-10,89.004C882.998,4193.613,875,4195.615,837.002,4167.617z"/>
		<path fill="#09044D" d="M7087.001,4153.613c-15-19.004-27.002-40-27.002-47.002c0-13.994,62.998-67.998,79.004-67.998
			c5.996,0,10.996,20.996,10.996,47.998C7150,4183.613,7129.003,4205.615,7087.001,4153.613z"/>
		<path fill="#09044D" d="M2212.002,3606.611l2.998-578.994h185v575.996v575h-95h-95L2212.002,3606.611z"/>
		<path fill="#09044D" d="M3030,3603.613v-575h95h95v575v575h-95h-95V3603.613z"/>
		<path fill="#09044D" d="M4700,3608.613v-570h100h100v570v570h-100h-100V3608.613z"/>
		<path fill="#09044D" d="M5520,3608.613v-570h95h95v570v570h-95h-95V3608.613z"/>
		<path fill="#09044D" d="M6870,4103.613c0-75.996,12.998-82.998,60.996-35c25,25,28.008,32.998,19.004,50s-57.998,50-75,50
			C6872.001,4168.613,6870,4139.609,6870,4103.613z"/>
		<path fill="#09044D" d="M740,3974.609c0-88.994,12.002-97.998,56.001-40l26.997,35l-18.999,26.006
			c-11.001,13.994-30,32.998-41.997,40.996L740,4050.615V3974.609z"/>
		<path fill="#09044D" d="M6974.003,4030.615c-38.008-32.002-48.008-60-30-87.998c8.994-13.008,26.992-31.006,40-40
			c21.992-14.004,26.992-14.004,55,0.996c67.998,35,72.998,80.996,11.992,124.004
			C7015.996,4052.617,7002.001,4053.613,6974.003,4030.615z"/>
		<path fill="#09044D" d="M950,4003.613l-32.998-34.004l35.996-35.996c19.004-19.004,40-35,46.001-35
			c7.002,0,11.001,25.996,11.001,70C1010,4050.615,1001.001,4055.615,950,4003.613z"/>
		<path fill="#09044D" d="M822.998,3876.611c-10.996-12.998-22.998-28.994-26.997-35c-10-17.998,11.001-50.996,46.001-72.998
			c27.998-17.002,33.999-17.002,58.999-4.004c52.998,27.002,62.998,71.006,23.999,109.004
			C893.999,3905.615,850,3906.611,822.998,3876.611z"/>
		<path fill="#09044D" d="M6870,3833.613c0-52.002,2.998-65,15-65c20.996,0,65,45,65,65s-44.004,65-65,65
			C6872.998,3898.613,6870,3885.615,6870,3833.613z"/>
		<path fill="#09044D" d="M7085.996,3872.617c-35-36.006-32.998-59.004,11.006-102.002l37.002-37.002l6.992,40
			c5,22.002,8.008,59.004,8.008,82.998c0.996,35-2.002,42.002-18.008,42.002C7120.996,3898.613,7100.996,3886.611,7085.996,3872.617
			z"/>
		<path fill="#09044D" d="M966.001,3739.609c-33.999-35.996-31.001-58.994,12.998-87.998c46.001-30.996,55-28.994,47.002,7.998
			c-3.003,17.002-6.001,49.004-6.001,70C1020,3776.611,1005,3779.609,966.001,3739.609z"/>
		<path fill="#09044D" d="M6954.003,3736.611c-33.008-30.996-34.004-35-24.004-65c10.996-30,47.002-62.998,69.004-62.998
			c17.998,0,80.996,62.002,80.996,79.004c0,18.994-60,80.996-77.998,80.996C6995,3768.613,6974.003,3753.613,6954.003,3736.611z"/>
		<path fill="#09044D" d="M740,3716.611c0-48.994,17.002-117.998,28.999-117.998c10,0,61.001,72.002,61.001,85.996
			c0,14.004-62.998,74.004-77.998,74.004C745,3758.613,740,3742.617,740,3716.611z"/>
		<path fill="#09044D" d="M6845,3572.617c-4.004-36.006-4.004-68.008-0.996-71.006c6.992-7.002,66.992,27.998,78.994,47.998
			c7.002,11.006,2.998,25-13.994,52.002C6872.001,3658.613,6854.003,3650.615,6845,3572.617z"/>
		<path fill="#09044D" d="M845,3591.611c-13.999-20.996-25-42.998-25-50c0-13.994,70-72.998,87.002-72.998
			c17.998,0,62.998,62.998,62.998,89.004c0,27.998-46.001,70.996-76.001,70.996C877.998,3628.613,862.002,3616.611,845,3591.611z"/>
		<path fill="#09044D" d="M7067.001,3580.615c-32.998-34.004-34.004-62.002-4.004-90c41.006-39.004,46.006-34.004,62.002,75.996
			c5.996,37.002,4.004,42.002-12.002,42.002C7102.001,3608.613,7082.001,3595.615,7067.001,3580.615z"/>
		<path fill="#09044D" d="M1006.001,3478.613c-33.003-40-33.003-62.998,0-89.004c56.001-43.994,73.999-22.998,55,63.008
			C1047.002,3509.609,1037.002,3514.609,1006.001,3478.613z"/>
		<path fill="#09044D" d="M6917.001,3460.615c-32.002-34.004-34.004-54.004-6.006-92.998c24.004-34.004,49.004-37.002,95-8.008
			c40,24.004,43.008,46.006,12.002,94.004C6989.003,3497.617,6955,3499.609,6917.001,3460.615z"/>
		<path fill="#09044D" d="M780,3444.609c0-20.996,20-118.994,25-123.994c7.002-7.998,35,18.994,51.001,48.994
			c16.997,34.004,10,55-27.002,74.004C793.999,3462.617,780,3462.617,780,3444.609z"/>
		<path fill="#09044D" d="M912.002,3336.611c-11.001-12.998-26.001-35.996-32.002-52.998c-10-27.002-8.999-32.002,17.002-52.998
			c45.996-37.002,72.998-39.004,98.999-7.002c42.998,54.004,32.998,90-33.003,124.004
			C935,3361.611,937.002,3362.617,912.002,3336.611z"/>
		<path fill="#09044D" d="M6805.996,3336.611c-15.996-75-15.996-97.998-3.994-97.998c13.994,0,77.998,37.002,77.998,45
			c0,2.002-7.998,20-17.002,40C6844.003,3363.613,6812.998,3370.615,6805.996,3336.611z"/>
		<path fill="#09044D" d="M7045,3311.611c-20.996-5.996-55-40-55-55c0-5,7.002-23.994,14.004-42.998
			c21.992-50.996,41.992-45,55.996,17.998c5.996,27.998,14.004,60,17.002,70C7080.996,3318.613,7079.003,3319.609,7045,3311.611z"/>
		<path fill="#09044D" d="M1060,3216.611c-27.002-43.994-25-62.998,7.998-85.996c46.001-32.002,62.002-34.004,62.002-9.004
			c0,35-28.999,127.002-41.001,127.002C1083.999,3248.613,1071.001,3233.613,1060,3216.611z"/>
		<path fill="#09044D" d="M6865.996,3198.613c-40-25.996-45.996-34.004-40-52.998c12.002-40,35-77.998,49.004-84.004
			c17.002-5.996,105,42.998,105,57.998c0,16.006-37.002,84.004-52.998,97.002
			C6915.996,3225.615,6902.998,3221.611,6865.996,3198.613z"/>
		<path fill="#09044D" d="M843.999,3137.617c7.002-44.004,32.002-99.004,43.999-99.004c5,0,18.003,20,29.004,44.004
			c23.999,47.998,20,56.992-34.004,85C843.999,3187.617,837.002,3181.611,843.999,3137.617z"/>
		<path fill="#09044D" d="M6745.996,3107.617c-16.992-50-35-123.008-31.992-127.002c7.998-7.002,95.996,37.002,95.996,47.998
			c0,17.002-27.002,65-44.004,79.004C6752.998,3118.613,6749.003,3118.613,6745.996,3107.617z"/>
		<path fill="#09044D" d="M967.002,3043.613c-27.002-57.002-22.002-74.004,25.996-95c23.003-10.996,47.002-20,52.002-20
			c12.998,0,55,74.004,55,97.998c0,11.006-13.999,25-35,35C1008.999,3088.613,986.001,3083.613,967.002,3043.613z"/>
		<path fill="#09044D" d="M6942.001,3016.611c-30-17.998-32.998-25-27.998-52.002c3.994-15.996,13.994-40.996,22.998-55
			l17.002-25.996l22.998,50c25,55,30,105,10.996,105C6980.996,3038.613,6960,3028.613,6942.001,3016.611z"/>
		<path fill="#09044D" d="M2200,2982.363v-93.75h1755h1755v50v50H3962.001C3000,2988.613,2200,2982.363,2200,2982.363z"/>
		<path fill="#09044D" d="M1140,2959.609c-5-10.996-10-32.998-10-48.994c0-29.004,7.002-35,72.998-56.006
			c24.004-7.998,23.003,26.006-3.999,81.006C1177.002,2981.611,1157.002,2989.609,1140,2959.609z"/>
		<path fill="#09044D" d="M6772.001,2930.615c-30-14.004-32.998-20-29.004-47.002c9.004-52.998,26.006-85,44.004-85
			c32.002,0.996,102.998,37.998,102.998,55c0,9.004-9.004,34.004-20,55C6847.001,2953.613,6827.001,2958.613,6772.001,2930.615z"/>
		<path fill="#09044D" d="M941.001,2841.611c11.001-32.002,23.999-62.002,30-67.998c15-15,48.999,30.996,48.999,67.002
			c0,23.994-6.001,32.002-35,43.994C922.998,2910.615,918.999,2905.615,941.001,2841.611z"/>
		<path fill="#09044D" d="M6645,2834.609c-9.004-21.992-19.004-55-22.002-72.998c-5-32.002-5-32.002,25-22.998
			c17.002,4.004,36.006,10.996,42.002,15c17.002,10,10.996,70.996-9.004,95.996l-20,24.004L6645,2834.609z"/>
		<path fill="#09044D" d="M2200,2803.613v-45h1755h1755v45v45H3955H2200V2803.613z"/>
		<path fill="#09044D" d="M1065,2782.617c-25-61.006-20-80,25-98.008c51.001-20,56.001-20,80,4.004
			c13.999,14.004,20,32.998,20,62.998c0,42.002-1.001,44.004-38.999,55C1092.002,2824.609,1082.002,2821.611,1065,2782.617z"/>
		<path fill="#09044D" d="M6847.998,2751.611C6820,2740.615,6810,2730.615,6810,2713.613c0-34.004,20.996-85.996,32.998-82.002
			c20,6.006,46.006,51.006,56.006,95C6909.003,2774.609,6905.996,2776.611,6847.998,2751.611z"/>
		<path fill="#09044D" d="M1246.001,2721.611c-23.003-83.994-18.999-92.998,52.998-107.998l33.999-7.002l-6.997,32.002
			c-8.003,42.002-43.999,100-61.001,100C1257.002,2738.613,1248.999,2730.615,1246.001,2721.611z"/>
		<path fill="#09044D" d="M2207.002,2721.611c-4.004-2.998-7.002-25.996-7.002-50v-42.998h1755h1755v50v50H3962.001
			C3000,2728.613,2210,2725.615,2207.002,2721.611z"/>
		<path fill="#09044D" d="M6680,2684.609c-40.996-10.996-45-15-47.998-45c-2.002-17.998,2.002-45.996,7.998-61.992
			c10.996-25,17.998-29.004,49.004-29.004c30,0,48.994,7.002,88.994,35c5,4.004-40,115-45.996,114.004
			C6727.998,2696.611,6705,2691.611,6680,2684.609z"/>
		<path fill="#09044D" d="M1048.999,2577.617c23.999-63.008,48.999-101.006,61.001-94.004c11.001,7.002,30,70.996,30,102.002
			c0,17.002-8.999,23.994-37.002,32.002C1031.001,2637.617,1027.002,2635.615,1048.999,2577.617z"/>
		<path fill="#09044D" d="M6520,2572.617c-42.002-66.006-40-80,10-76.006c20.996,2.002,44.004,10,50.996,17.998
			c14.004,17.002,4.004,77.002-15.996,94.004C6552.998,2618.613,6545,2611.611,6520,2572.617z"/>
		<path fill="#09044D" d="M1193.999,2553.613c-17.998-27.998-28.999-95-16.997-112.002c3.999-5.996,32.998-12.998,62.998-15
			c50-2.998,55-0.996,66.001,22.002c6.997,14.004,13.999,37.998,16.001,54.004c1.997,23.994-3.003,32.998-27.002,46.992
			C1240,2580.615,1212.002,2581.611,1193.999,2553.613z"/>
		<path fill="#09044D" d="M6717.998,2487.617c-23.994-12.002-37.998-27.002-37.998-39.004c0-27.998,22.002-70.996,34.004-67.002
			c10.996,4.004,75.996,106.006,75.996,120C6790,2514.609,6755.996,2508.613,6717.998,2487.617z"/>
		<path fill="#09044D" d="M1382.002,2485.615c-6.001-7.002-16.001-25-21.001-40c-15-39.004,13.999-67.002,68.999-67.002
			c22.002,0,40,2.998,40,7.998c0,14.004-60,112.002-68.999,112.002C1396.001,2498.613,1387.998,2492.617,1382.002,2485.615z"/>
		<path fill="#09044D" d="M6537.998,2436.611c-52.998-10.996-52.998-12.002-37.002-88.994l11.006-51.006l37.002,5
			c65,9.004,90.996,24.004,90.996,52.002c0,35.996-25.996,95-42.002,94.004C6590.996,2446.611,6564.003,2441.611,6537.998,2436.611z
			"/>
		<path fill="#09044D" d="M6387.001,2351.611c-27.002-42.998-47.002-80-47.002-85.996c0-6.006,87.998,10.996,100.996,17.998
			c12.002,7.998,11.006,20.996-1.992,67.998c-5,20-14.004,37.002-19.004,37.002C6414.003,2388.613,6400,2371.611,6387.001,2351.611z
			"/>
		<path fill="#09044D" d="M1170,2366.611c0-7.002,13.999-37.002,30-65c42.998-75.996,70-68.994,70,17.002
			c0,40.996-1.001,42.002-67.002,55C1178.999,2378.613,1170,2376.611,1170,2366.611z"/>
		<path fill="#09044D" d="M1342.002,2267.617c-7.002-29.004-11.001-53.008-10-54.004c1.997-0.996,23.999-5.996,50-9.004
			c45-6.992,47.998-5.996,61.997,23.008c22.002,41.992,8.003,75.996-33.999,85
			C1357.002,2322.617,1353.999,2320.615,1342.002,2267.617z"/>
		<path fill="#09044D" d="M1520,2219.609c0-41.992,2.998-48.994,22.998-55c35-8.994,67.002-6.992,67.002,5
			c0,26.006-32.998,77.002-56.001,88.008C1518.999,2272.617,1520,2273.613,1520,2219.609z"/>
		<path fill="#09044D" d="M6582.998,2247.617c-17.998-5-37.002-18.008-42.998-28.008c-14.004-26.992-2.002-80.996,19.004-80.996
			c17.998,0,66.992,64.004,72.998,94.004C6635.996,2255.615,6624.003,2259.609,6582.998,2247.617z"/>
		<path fill="#09044D" d="M6367.998,2187.617c-10.996-6.006-17.998-22.002-17.998-39.004c0-52.998,7.998-60,65.996-60
			c53.008,0,54.004,0,54.004,30c0,50.996-19.004,80-54.004,80C6399.003,2198.613,6377.001,2193.613,6367.998,2187.617z"/>
		<path fill="#09044D" d="M6220.996,2126.611c-53.994-57.002-52.998-67.998,9.004-67.998h50v55c0,30-4.004,55-9.004,55
			S6242.998,2149.609,6220.996,2126.611z"/>
		<path fill="#09044D" d="M1330,2120.615c0-25,60-102.002,81.001-102.002c18.999,0,28.999,35.996,21.997,74.004
			c-3.999,17.998-13.999,26.992-36.997,30.996c-17.002,4.004-38.999,9.004-48.003,10.996C1335,2138.613,1330,2134.609,1330,2120.615
			z"/>
		<path fill="#09044D" d="M1506.001,2066.611c-3.003-12.998-6.001-37.002-6.001-53.994c0-30,2.002-31.006,52.002-37.002
			c27.998-4.004,52.998-5,53.999-4.004c1.001,1.006,3.999,27.002,5,57.002l3.999,55l-51.001,2.998
			C1517.998,2089.609,1512.002,2087.617,1506.001,2066.611z"/>
		<path fill="#09044D" d="M1692.002,2016.611c2.998-40.996,3.999-42.002,50.996-53.994c60-15,62.002-1.006,11.001,55.996
			C1706.001,2071.611,1687.998,2071.611,1692.002,2016.611z"/>
		<path fill="#09044D" d="M6402.001,2008.613c-17.998-4.004-35-10-37.998-12.002c-7.002-7.998,7.998-97.998,16.992-97.998
			c13.008,0,89.004,102.002,83.008,110.996C6457.998,2019.609,6447.998,2019.609,6402.001,2008.613z"/>
		<path fill="#09044D" d="M6180.996,1974.609c-16.992-20-10-96.992,10-108.994c9.004-6.006,36.006-7.002,64.004-2.998l47.002,7.998
			l-4.004,50c-2.998,27.998-12.002,53.994-18.994,58.994C6257.001,1993.613,6194.003,1989.609,6180.996,1974.609z"/>
		<path fill="#09044D" d="M6055,1940.615c-10.996-9.004-30.996-30-42.998-47.002c-22.002-27.002-22.002-30-5-35.996
			c10-4.004,33.994-8.008,53.994-8.008c42.002-0.996,49.004,9.004,49.004,70C6110,1963.613,6090.996,1971.611,6055,1940.615z"/>
		<path fill="#09044D" d="M1510,1894.609c0-13.994,42.998-72.998,65-87.998c5-3.994,17.998-7.998,27.998-7.998
			c16.001,0,17.002,5.996,11.001,47.998c-2.998,26.006-6.997,47.998-7.998,47.998c0,1.006-22.002,5-48.003,8.008
			C1518.999,1908.613,1510,1906.611,1510,1894.609z"/>
		<path fill="#09044D" d="M1683.999,1875.615c-2.998-7.998-3.999-36.006-1.997-62.998c2.998-47.002,3.999-49.004,40-58.008
			c25.996-6.992,45.996-5.996,62.998,2.002c23.999,11.006,26.001,16.006,22.998,70l-2.998,57.002l-57.998,2.998
			C1705,1888.613,1687.998,1885.615,1683.999,1875.615z"/>
		<path fill="#09044D" d="M1872.002,1811.611l2.998-47.998l57.998-2.998c32.002-2.002,57.002,0.996,57.002,7.002
			c0,18.994-78.999,90.996-100,90.996C1871.001,1858.613,1868.999,1853.613,1872.002,1811.611z"/>
		<path fill="#09044D" d="M6207.998,1791.611c-25.996-3.994-27.998-7.998-27.998-48.994c0-47.002,0-47.002,25-38.008
			c20,8.008,65.996,74.004,59.004,86.006C6259.003,1798.613,6255.996,1798.613,6207.998,1791.611z"/>
		<path fill="#09044D" d="M5980,1723.613v-65h55h55v59.004v57.998l-37.002,7.002C5979.003,1794.609,5980,1795.615,5980,1723.613z"/>
		<path fill="#09044D" d="M5839.003,1731.611c-38.008-33.994-39.004-37.998-23.008-50c10-7.002,35-12.998,56.006-12.998H5910v50
			C5910,1780.615,5895.996,1783.613,5839.003,1731.611z"/>
		<path fill="#09044D" d="M1705,1689.609c-7.002-12.998,45-70.996,83.999-93.994c31.001-17.998,31.001-17.998,31.001,5
			c0,12.998-2.998,40-6.001,60.996c-6.997,37.002-6.997,37.002-55,37.002C1732.998,1698.613,1708.999,1694.609,1705,1689.609z"/>
		<path fill="#09044D" d="M1896.001,1672.617c-11.001-29.004-6.001-61.006,11.997-84.004c16.001-19.004,24.004-22.002,55-15.996
			c20,3.994,38.003,10,41.001,13.994c2.002,4.004,2.002,27.998-1.001,55l-5.996,47.002H1950
			C1916.001,1688.613,1900,1684.609,1896.001,1672.617z"/>
		<path fill="#09044D" d="M2075,1678.613c-12.002-19.004,5-79.004,23.999-89.004c18.999-10.996,88.003-3.994,96.001,9.004
			c6.001,10-66.001,75.996-92.002,84.004C2091.001,1686.611,2078.999,1684.609,2075,1678.613z"/>
		<path fill="#09044D" d="M5662.998,1591.611c-42.998-20-85.996-60.996-77.998-72.998c2.998-5.996,27.998-10,54.004-10h48.994
			l7.002,45.996c2.998,25,5,47.002,2.998,49.004S5680,1600.615,5662.998,1591.611z"/>
		<path fill="#09044D" d="M5770,1585.615c0-12.998-2.998-37.998-5.996-55c-7.002-32.998-3.008-35,71.992-47.002l41.006-5.996
			l5.996,57.998c2.998,30.996,5,57.998,4.004,58.994c-1.006,1.006-27.998,5-59.004,8.008
			C5770.996,1609.609,5770,1609.609,5770,1585.615z"/>
		<path fill="#09044D" d="M5955,1547.617c-4.004-27.002-4.004-53.008-0.996-56.006c12.998-12.998,115.996,70,115.996,94.004
			c0,8.994-15.996,12.998-54.004,12.998h-53.994L5955,1547.617z"/>
		<path fill="#09044D" d="M2122.998,1521.611c-25-5-27.998-25-16.997-95c6.001-35,8.999-37.998,38.999-37.998
			c17.998,0,46.001,5,63.999,10.996c33.003,12.002,36.001,22.002,25,92.002c-6.001,36.006-7.998,37.002-47.998,36.006
			C2163.999,1526.611,2135,1523.613,2122.998,1521.611z"/>
		<path fill="#09044D" d="M2301.001,1486.611c3.999-23.994,7.998-47.998,8.999-52.998c0-15,67.002-5.996,80,10
			c16.001,19.004,2.998,40-38.999,62.998C2296.001,1537.617,2291.001,1535.615,2301.001,1486.611z"/>
		<path fill="#09044D" d="M1931.001,1499.609c-18.003-10.996-8.003-25.996,41.001-61.992c57.998-42.002,67.998-39.004,67.998,20.996
			v50h-47.002C1966.001,1508.613,1938.999,1504.609,1931.001,1499.609z"/>
		<path fill="#09044D" d="M5390,1422.617c-40.996-29.004-44.004-46.006-10-55c55-15,77.002-11.006,84.004,18.994
			c3.994,15,8.994,35,11.992,45C5484.003,1457.617,5432.001,1452.617,5390,1422.617z"/>
		<path fill="#09044D" d="M5550,1414.609c-20.996-55.996-14.004-72.998,35.996-85c26.006-6.992,48.008-10,50-8.994
			c1.006,2.002,6.006,27.002,10,55.996c5,42.998,4.004,52.002-7.998,52.002c-8.994,0-28.994,2.998-47.002,5.996
			C5564.003,1440.615,5559.003,1437.617,5550,1414.609z"/>
		<path fill="#09044D" d="M5747.001,1401.611c-4.004-2.998-7.002-18.994-7.002-33.994c0-26.006,2.002-27.002,30.996-19.004
			c68.008,20,82.002,60,21.006,60C5770.996,1408.613,5750,1405.615,5747.001,1401.611z"/>
		<path fill="#09044D" d="M2526.001,1355.615c11.001-70,26.001-79.004,91.001-52.002l35.996,15l-22.998,25
			c-12.002,12.998-42.002,30.996-66.001,39.004l-43.999,15L2526.001,1355.615z"/>
		<path fill="#09044D" d="M2362.002,1367.617c-33.003-10-33.003-11.006-27.002-52.002c13.999-80,22.002-86.006,101.001-66.006
			c41.997,11.006,45,13.008,40,40c-18.999,95-16.001,89.004-48.999,88.008C2408.999,1377.617,2380,1372.617,2362.002,1367.617z"/>
		<path fill="#09044D" d="M2172.998,1331.611c-31.997-5.996-28.999-15,15-48.994c46.001-37.002,90-59.004,98.003-51.006
			c2.998,2.998,1.001,29.004-6.001,56.006c-12.002,50-12.998,50.996-47.998,50C2211.001,1336.611,2185,1333.613,2172.998,1331.611z"
			/>
		<path fill="#09044D" d="M5172.998,1306.611c-57.998-22.998-67.002-42.998-27.002-57.998
			c48.008-19.004,71.006-12.998,83.008,20.996c12.998,37.002,13.994,59.004,3.994,58.008
			C5227.998,1327.617,5200.996,1317.617,5172.998,1306.611z"/>
		<path fill="#09044D" d="M5292.001,1262.617c-12.998-65-12.002-67.002,52.002-85c32.998-9.004,40.996-8.008,55.996,7.998
			c10,10,20.996,37.002,25,60c5.996,40,5,43.994-20,52.998c-14.004,5-42.998,12.998-62.998,15.996l-37.002,6.006L5292.001,1262.617z
			"/>
		<path fill="#09044D" d="M2775,1232.617c8.999-49.004,12.002-54.004,36.001-54.004c28.999,0,88.999,27.002,88.999,40
			c0,12.002-47.998,34.004-98.999,45l-33.999,7.002L2775,1232.617z"/>
		<path fill="#09044D" d="M5492.998,1256.611c-5.996-7.002-12.998-30-15.996-50.996c-6.006-37.998-5-39.004,18.994-32.998
			c33.008,8.994,104.004,52.998,104.004,65.996c0,7.998-60.996,30-85.996,30C5507.998,1268.613,5497.998,1262.617,5492.998,1256.611
			z"/>
		<path fill="#09044D" d="M2597.998,1237.617c-21.997-12.002-22.998-48.008-3.999-94.004c17.002-40,43.003-45,101.001-20.996
			c38.999,16.992,42.002,27.998,18.999,85.996c-15,37.998-17.998,40-57.998,40
			C2633.999,1248.613,2607.002,1243.613,2597.998,1237.617z"/>
		<path fill="#09044D" d="M4905.996,1198.613c-52.998-27.002-52.998-25.996-15-49.004c46.006-27.998,66.006-25.996,84.004,9.004
			C5007.001,1220.615,4980.996,1235.615,4905.996,1198.613z"/>
		<path fill="#09044D" d="M2445,1189.609c-63.999-10-57.002-32.998,20-70c37.002-17.998,68.999-30,72.998-26.992
			c10,10.996-23.999,100.996-37.998,101.992C2492.002,1195.615,2467.002,1193.613,2445,1189.609z"/>
		<path fill="#09044D" d="M5045,1159.609c-20-45-15.996-62.998,17.002-85c45.996-30,72.002-28.994,88.994,1.006
			c9.004,15,19.004,40,23.008,55c5.996,23.994,1.992,30-33.008,47.998C5082.001,1207.617,5065.996,1204.609,5045,1159.609z"/>
		<path fill="#09044D" d="M3020,1156.611c0-32.998,27.002-67.998,52.998-67.998c12.002,0,37.002,9.004,55,20
			c27.002,17.002,31.001,24.004,22.002,35c-6.001,7.002-25,15.996-41.001,19.004c-16.001,2.998-41.997,8.994-58.999,11.992
			C3023.999,1179.609,3020,1177.617,3020,1156.611z"/>
		<path fill="#09044D" d="M2872.998,1131.611c-37.998-18.994-40-32.002-12.998-90.996c17.998-39.004,22.002-42.002,47.002-36.006
			c85,21.006,92.998,34.004,63.999,98.008C2948.999,1154.609,2930,1159.609,2872.998,1131.611z"/>
		<path fill="#09044D" d="M4647.998,1122.617c-55-17.002-55-34.004-0.996-59.004c32.998-15.996,35.996-15.996,55,2.002
			c10.996,10,25.996,30,33.994,45c14.004,27.002,14.004,27.998-12.998,27.002
			C4707.001,1137.617,4674.003,1130.615,4647.998,1122.617z"/>
		<path fill="#09044D" d="M5227.998,1091.611c-12.002-40-12.002-48.994,0-50.996c17.002-5,105,38.994,110,55
			c4.004,13.994-20,27.998-65,37.002C5242.001,1139.609,5240.996,1138.613,5227.998,1091.611z"/>
		<path fill="#09044D" d="M4782.001,1069.609c-31.006-53.994-27.998-67.998,17.998-90.996c52.998-27.002,65-25,89.004,14.004
			c31.992,50.996,26.992,71.992-19.004,95.996C4815.996,1116.611,4807.001,1114.609,4782.001,1069.609z"/>
		<path fill="#09044D" d="M3280,1092.617c0-4.004,8.999-22.002,21.001-40c23.999-39.004,50-43.008,78.999-14.004
			c25,25,25,37.002,1.001,50C3360,1099.609,3280,1102.617,3280,1092.617z"/>
		<path fill="#09044D" d="M4395,1076.611c-27.002-5.996-52.002-12.002-52.998-13.994c-7.002-6.006,10-44.004,18.994-44.004
			c6.006,0,17.002-7.002,26.006-15c22.002-22.998,43.994-15,70,24.004C4497.998,1088.613,4490,1095.615,4395,1076.611z"/>
		<path fill="#09044D" d="M2682.002,1056.611c-12.002-5.996-21.001-15.996-19.004-22.002c4.004-11.992,127.002-58.994,135-51.992
			c2.002,2.998,0,21.992-5,42.998c-7.998,35.996-10.996,37.998-47.998,40C2722.998,1066.611,2695,1062.617,2682.002,1056.611z"/>
		<path fill="#09044D" d="M3140,1047.617c-18.999-12.002-37.002-23.008-38.999-25c-3.003-2.002,6.001-27.002,18.999-54.004
			c20-42.002,27.998-50,51.001-50c28.999,0,88.999,42.998,88.999,64.004c0,21.992-51.001,85.996-67.998,85.996
			C3182.998,1068.613,3158.999,1058.613,3140,1047.617z"/>
		<path fill="#09044D" d="M3540,1050.615c0-21.006,35-72.002,53.999-77.998c26.001-8.008,86.001,50,68.999,66.992
			C3647.002,1055.615,3540,1064.609,3540,1050.615z"/>
		<path fill="#09044D" d="M4097.998,1041.611c-25-5.996-22.002-25,5-50.996c31.006-29.004,61.006-27.998,86.006,3.994
			c32.998,43.008,27.998,54.004-26.006,53.008C4135.996,1046.611,4107.001,1044.609,4097.998,1041.611z"/>
		<path fill="#09044D" d="M3810,1023.613c0-15.996,48.999-65,66.001-65c16.997,0,63.999,47.002,63.999,65c0,12.002-12.998,15-65,15
			C3825,1038.613,3810,1035.615,3810,1023.613z"/>
		<path fill="#09044D" d="M4532.001,1021.611c-11.006-10-27.002-30-36.006-43.994c-15-24.004-15-27.002,6.006-46.006
			c27.998-25,62.002-42.998,80.996-42.998c19.004,0,71.006,75.996,64.004,94.004c-5,11.992-75,55.996-90,55.996
			C4554.003,1038.613,4542.998,1030.615,4532.001,1021.611z"/>
		<path fill="#09044D" d="M3432.998,1002.617c-16.997-9.004-38.999-24.004-47.998-34.004c-15-17.002-15-20.996-1.001-47.002
			c8.003-15,23.999-37.998,33.003-50.996l18.999-22.998l47.998,31.992c26.001,18.008,50,38.008,53.003,45
			c3.999,12.002-53.003,94.004-66.001,94.004C3467.998,1018.613,3451.001,1010.615,3432.998,1002.617z"/>
		<path fill="#09044D" d="M4965.996,996.611c-21.992-30-20-57.998,2.002-57.998c32.998,0,112.002,32.002,112.002,45
			c0,14.004-50,35-80.996,35C4989.003,1018.613,4974.003,1008.613,4965.996,996.611z"/>
		<path fill="#09044D" d="M4264.003,986.611c-23.008-10.996-44.004-47.998-44.004-77.998c0-22.998,55-70,80.996-70
			c12.002,0,30,17.002,49.004,47.002l30,47.998l-37.002,32.002C4302.001,1000.615,4295.996,1002.617,4264.003,986.611z"/>
		<path fill="#09044D" d="M3965.996,948.613c-19.995-22.002-35.996-45.996-35.996-54.004c0-16.992,65-75.996,84.004-75.996
			c16.992,0,75.996,65.996,75.996,84.004c0,11.992-72.998,85.996-84.004,85.996C4004.003,988.613,3985.996,970.615,3965.996,948.613
			z"/>
		<path fill="#09044D" d="M2960,953.613c-21.001-22.002-22.002-27.998-10-35c22.002-14.004,120-32.998,127.998-25
			c4.004,2.998-1.997,22.998-12.998,42.998C3038.999,985.615,2996.001,991.611,2960,953.613z"/>
		<path fill="#09044D" d="M3685,944.609c-37.998-31.992-38.999-33.994-22.998-56.992c20.996-32.002,56.997-69.004,65.996-69.004
			c17.002,0,84.004,79.004,78.003,92.002C3768.999,988.613,3742.998,995.615,3685,944.609z"/>
		<path fill="#09044D" d="M4680.996,905.615c-30.996-51.006-27.998-61.006,17.002-52.002c20,4.004,55,14.004,77.002,24.004
			l40,16.992l-25.996,17.002c-14.004,9.004-39.004,19.004-56.006,22.998C4705.996,939.609,4700,936.611,4680.996,905.615z"/>
		<path fill="#09044D" d="M3240,880.615c-12.998-10-20-22.998-17.002-29.004c7.002-10.996,83.003-32.998,116.001-32.998
			c28.003,0,27.002,30.996-1.997,57.998C3308.999,903.613,3270,904.609,3240,880.615z"/>
		<path fill="#09044D" d="M4407.001,860.615c-42.002-44.004-36.006-62.002,20.996-62.002c26.006,0.996,60,7.002,76.006,12.998
			l28.994,12.998l-38.994,32.002c-21.006,17.998-43.008,32.002-49.004,32.002S4422.001,875.615,4407.001,860.615z"/>
		<path fill="#09044D" d="M3557.002,852.617c-14.004-8.008-31.001-23.008-37.002-34.004c-12.002-22.002-6.001-24.004,82.998-34.004
			c50-5.996,54.004-1.992,36.001,37.002C3622.998,857.617,3590,869.609,3557.002,852.617z"/>
		<path fill="#09044D" d="M3843.999,829.609c-33.999-20.996-58.999-48.994-51.001-56.992c10-10,122.002-15,136.001-6.006
			c17.002,12.002,2.002,42.998-31.997,65C3875,845.615,3870,845.615,3843.999,829.609z"/>
		<path fill="#09044D" d="M4112.998,813.613c-20-20-32.998-37.998-30-40.996c7.998-9.004,147.002,5.996,147.002,15.996
			c0,14.004-49.004,60-65.996,60C4155,848.613,4132.001,832.617,4112.998,813.613z"/>
	</g>
	<g>
		<path fill="#09044D" d="M245.72,606.098h-22.646c-1.453,0-2.81-0.249-4.071-0.745c-2.446-1.146-4.377-3.059-5.791-5.733
			c-0.459-1.339-0.688-2.715-0.688-4.128v-14.219h8.428v14.219c0,0.649,0.229,1.127,0.688,1.433
			c0.344,0.497,0.822,0.746,1.434,0.746h13.989v-44.319h8.657V606.098z"/>
		<path fill="#09044D" d="M273.928,585.63h8.199v8.428h-31.82v-8.428h2.179v-27.463h8.428v27.463h4.587v-32.279h8.428V585.63z"/>
		<path fill="#09044D" d="M291.127,566.595h14.677c1.528,0,2.981,0.325,4.357,0.975c2.408,0.88,4.338,2.715,5.791,5.504
			c0.459,1.3,0.688,2.676,0.688,4.128v16.856h-36.808v-8.428h28.38v-8.429c0-0.381-0.077-0.706-0.229-0.975
			c-0.306-0.344-0.63-0.668-0.975-0.975c-0.268-0.152-0.669-0.229-1.204-0.229h-18.06L291.127,566.595z M302.021,605.524h-7.454
			v-7.683h7.454V605.524z"/>
		<path fill="#09044D" d="M336.592,566.595h12.556c1.376,0,2.81,0.325,4.3,0.975c2.638,0.956,4.491,2.791,5.562,5.504
			c0.649,1.376,0.975,2.752,0.975,4.128v16.856h-25.8v-8.428h17.372v-8.429c0-0.496-0.401-1.146-1.204-1.949
			c-0.307-0.152-0.708-0.229-1.204-0.229h-12.556V566.595z"/>
		<path fill="#09044D" d="M388.193,594.058h-23.622v-8.428h1.949v-27.463h8.658v27.463h4.3v-32.279h8.715V594.058z"/>
		<path fill="#09044D" d="M403.613,566.365h5.563c1.375,0,2.809,0.325,4.299,0.975c1.225,0.422,2.352,1.147,3.383,2.179
			c0.994,1.071,1.797,2.275,2.408,3.612c0.496,1.224,0.746,2.58,0.746,4.07v18.29c0,1.49-0.25,2.866-0.746,4.128
			c-1.338,2.752-3.268,4.663-5.791,5.733c-1.223,0.496-2.578,0.745-4.07,0.745h-6.535v-8.428h6.535c0.459,0,0.938-0.249,1.434-0.746
			c0.496-0.268,0.746-0.745,0.746-1.433v-1.434h-18.806v-16.856c0-1.413,0.324-2.771,0.975-4.07
			c0.459-1.299,1.185-2.475,2.179-3.526c0.995-1.051,2.102-1.806,3.327-2.265C400.748,566.69,402.199,566.365,403.613,566.365z
			 M409.176,575.023h-5.563c-0.879,0-1.527,0.324-1.949,0.975c-0.305,0.306-0.457,0.707-0.457,1.203v8.429h10.377v-8.429
			c0-0.496-0.096-0.897-0.287-1.203C410.646,575.348,409.939,575.023,409.176,575.023z"/>
		<path fill="#09044D" d="M432.279,544.521h-2.178c-0.076,0-0.229,0.039-0.459,0.115c-0.307,0.191-0.459,0.458-0.459,0.802v0.976
			h3.842v3.611h-8.428v-3.611h0.975v-0.976c0-1.49,0.439-2.617,1.318-3.382s1.949-1.147,3.211-1.147h2.178V544.521z
			 M433.082,594.058h-8.428v-40.707h8.428V594.058z"/>
		<path fill="#09044D" d="M477.572,585.63h8.199v8.428h-35.146v-16.856c0-1.452,0.23-2.809,0.689-4.07
			c0.611-1.337,1.412-2.541,2.408-3.612c0.992-0.993,2.121-1.72,3.383-2.179c1.375-0.649,2.752-0.975,4.127-0.975h16.34V585.63z
			 M465.131,561.033h-7.453v-7.683h7.453V561.033z M469.145,575.023h-7.912c-0.383,0-0.707,0.076-0.975,0.229
			c-0.803,0.345-1.203,0.995-1.203,1.949v8.429h10.09V575.023z M475.279,561.033h-7.453v-7.683h7.453V561.033z"/>
		<path fill="#09044D" d="M503.43,594.058h-19.951v-8.428h11.295v-19.035h8.656V594.058z M494.027,606.557h-7.453v-7.683h7.453
			V606.557z M503.43,606.557h-7.453v-7.683h7.453V606.557z"/>
		<path fill="#09044D" d="M510.424,566.595h12.557c1.377,0,2.809,0.325,4.301,0.975c2.369,0.842,4.299,2.676,5.789,5.504
			c0.498,1.262,0.746,2.638,0.746,4.128v8.429h8.141v8.428h-33.941v-8.428h17.373v-8.429c0-0.496-0.402-1.146-1.205-1.949
			c-0.305-0.152-0.707-0.229-1.203-0.229h-12.557V566.595z"/>
		<path fill="#09044D" d="M556.061,553.351v30.101c0,0.344,0.076,0.745,0.23,1.204c0.648,0.65,1.279,0.975,1.891,0.975h6.02v8.428
			h-6.02c-1.338,0-2.693-0.324-4.07-0.975c-0.766-0.267-1.49-0.745-2.178-1.434c-0.881,0.688-1.684,1.167-2.408,1.434
			c-1.301,0.65-2.658,0.975-4.072,0.975h-5.789v-8.428h5.789c0.955,0,1.586-0.324,1.893-0.975c0.191-0.573,0.287-0.975,0.287-1.204
			v-30.101H556.061z"/>
		<path fill="#09044D" d="M578.477,594.058h-16.568v-8.428h7.912v-19.035h8.656V594.058z M576.758,606.729h-7.455v-7.683h7.455
			V606.729z"/>
	</g>
</g>
</svg>
